<?xml version="1.0" standalone="no"?>
<!DOCTYPE svg PUBLIC "-//W3C//DTD SVG 20010904//EN"
 "http://www.w3.org/TR/2001/REC-SVG-20010904/DTD/svg10.dtd">
<svg version="1.0" xmlns="http://www.w3.org/2000/svg"
 width="440.000000pt" height="183.000000pt" viewBox="0 0 440.000000 183.000000"
 preserveAspectRatio="xMidYMid meet">

<g transform="translate(0.000000,183.000000) scale(0.100000,-0.100000)"
fill="#000000" stroke="none">
<path d="M941 1797 c-83 -27 -132 -109 -116 -194 9 -48 68 -108 121 -122 108
-29 216 68 201 181 -12 93 -120 163 -206 135z m77 -68 c64 -22 83 -103 36
-158 -21 -26 -33 -31 -69 -31 -36 0 -48 5 -69 31 -46 54 -29 133 34 158 33 13
32 13 68 0z"/>
<path d="M384 1566 c-38 -17 -82 -72 -90 -114 -28 -140 135 -248 255 -169 99
65 95 205 -8 274 -39 27 -108 30 -157 9z m122 -68 c26 -12 44 -48 44 -89 0
-43 -50 -89 -97 -89 -46 0 -93 45 -93 90 0 85 67 126 146 88z"/>
<path d="M1439 1547 c-50 -34 -79 -82 -79 -134 0 -148 163 -220 275 -122 84
74 64 214 -38 263 -51 23 -117 21 -158 -7z m120 -48 c77 -27 80 -138 4 -174
-87 -42 -173 64 -117 143 27 39 63 48 113 31z"/>
<path d="M935 1291 c-75 -19 -118 -66 -135 -148 -21 -97 -4 -190 47 -259 13
-17 23 -33 23 -37 0 -12 -68 -46 -131 -67 -37 -11 -76 -31 -87 -43 -24 -26
-48 -106 -39 -131 17 -44 67 -24 67 28 0 43 23 73 63 81 51 12 129 49 166 81
27 22 46 29 83 31 26 1 48 -3 48 -7 0 -16 85 -67 150 -90 81 -29 92 -39 99
-91 7 -50 32 -72 57 -48 12 13 14 27 9 63 -11 68 -42 100 -123 126 -71 23
-132 56 -132 71 0 4 14 28 30 51 56 80 61 231 9 314 -35 58 -132 93 -204 75z
m105 -76 c44 -23 62 -66 62 -147 0 -97 -31 -158 -88 -176 -55 -17 -105 2 -130
50 -23 44 -31 177 -14 219 26 61 107 87 170 54z"/>
<path d="M163 1020 c-78 -40 -109 -125 -75 -203 41 -91 137 -129 222 -85 61
32 90 77 90 143 0 124 -126 201 -237 145z m123 -59 c85 -52 50 -181 -49 -181
-81 0 -125 91 -76 154 38 48 77 56 125 27z"/>
<path d="M1665 1026 c-91 -40 -123 -164 -64 -247 69 -97 226 -82 279 27 26 53
25 91 -3 144 -40 75 -136 109 -212 76z m138 -86 c38 -42 37 -92 -2 -131 -23
-22 -39 -29 -69 -29 -98 0 -132 129 -48 181 41 26 83 18 119 -21z"/>
<path d="M1474 521 c-72 -18 -116 -73 -122 -150 -3 -46 0 -62 20 -90 40 -59
72 -76 143 -76 77 0 109 20 144 88 19 38 22 56 17 92 -14 93 -111 158 -202
136z m79 -72 c29 -13 57 -58 57 -93 0 -31 -46 -83 -80 -91 -39 -9 -93 24 -106
65 -27 83 50 155 129 119z"/>
<path d="M424 514 c-35 -8 -102 -72 -114 -110 -20 -59 -5 -119 40 -164 133
-133 346 21 260 189 -31 62 -115 100 -186 85z m79 -75 c75 -39 76 -138 0 -174
-63 -30 -133 14 -133 85 0 41 14 66 48 84 33 18 56 20 85 5z"/>
<path d="M955 300 c-126 -27 -177 -171 -93 -265 l30 -35 93 0 93 0 30 35 c101
114 -5 297 -153 265z m99 -91 c66 -78 -3 -191 -98 -159 -105 34 -79 190 32
190 33 0 45 -6 66 -31z"/>
</g>
</svg>
